<svg width="86" height="69" viewBox="0 0 86 69" fill="none" xmlns="http://www.w3.org/2000/svg">
<path d="M3.90254 40.7463L22.444 64.5122C23.1611 65.4341 24.9025 65.4341 25.8245 64.5122L81.4489 8.78537C82.3708 7.86341 82.2684 6.42927 81.4489 5.60975L80.0147 4.17561C79.1952 3.3561 77.7611 3.25366 76.8391 4.17561L26.4391 54.678C25.4147 55.7024 23.7757 55.6 22.8538 54.4732L9.02449 36.7512C8.20498 35.6244 6.87327 35.7268 5.95132 36.3415L4.20986 37.5707C3.28791 38.1854 3.08303 39.722 3.90254 40.7463Z" fill="black"/>
<path d="M3.90254 40.7463L6.21016 38.946L6.19917 38.9319L6.18801 38.918L3.90254 40.7463ZM22.444 64.5122L24.7543 62.7153L24.7516 62.7119L22.444 64.5122ZM25.8245 64.5122L27.8941 66.5818L27.896 66.5799L25.8245 64.5122ZM81.4489 8.78537L79.3793 6.71578L79.3774 6.71769L81.4489 8.78537ZM76.8391 4.17561L74.7695 2.10603L74.7674 2.10813L76.8391 4.17561ZM26.4391 54.678L28.5087 56.7476L28.5108 56.7455L26.4391 54.678ZM22.8538 54.4732L20.5463 56.2738L20.5671 56.3004L20.5885 56.3265L22.8538 54.4732ZM9.02449 36.7512L6.65746 38.4727L6.68659 38.5128L6.71707 38.5518L9.02449 36.7512ZM5.95132 36.3415L4.32781 33.9062L4.29534 33.9278L4.26347 33.9503L5.95132 36.3415ZM4.20986 37.5707L5.83337 40.006L5.86584 39.9844L5.89771 39.9619L4.20986 37.5707ZM1.59492 42.5467L20.1364 66.3125L24.7516 62.7119L6.21016 38.946L1.59492 42.5467ZM20.1337 66.3091C21.2028 67.6836 22.8028 68.1305 24.0574 68.1305C25.3405 68.1305 26.7966 67.6793 27.8941 66.5818L23.7549 62.4426C23.8499 62.3477 23.933 62.3083 23.971 62.2939C24.0078 62.28 24.0335 62.2768 24.0574 62.2768C24.0791 62.2768 24.1508 62.2794 24.2641 62.3264C24.3812 62.3748 24.5764 62.4866 24.7543 62.7153L20.1337 66.3091ZM27.896 66.5799L83.5204 10.853L79.3774 6.71769L23.753 62.4445L27.896 66.5799ZM83.5185 10.8549C85.6691 8.70426 85.3933 5.41502 83.5185 3.54017L79.3793 7.67933C79.2333 7.53337 79.179 7.3687 79.1758 7.22417C79.172 7.05382 79.2397 6.85542 79.3793 6.71579L83.5185 10.8549ZM83.5185 3.54017L82.0843 2.10603L77.9452 6.24519L79.3793 7.67933L83.5185 3.54017ZM82.0843 2.10603C80.2095 0.231189 76.9202 -0.0446625 74.7695 2.10603L78.9087 6.24519C78.7691 6.38483 78.5707 6.45245 78.4003 6.44867C78.2558 6.44546 78.0911 6.39116 77.9452 6.24519L82.0843 2.10603ZM74.7674 2.10813L24.3674 52.6106L28.5108 56.7455L78.9108 6.24309L74.7674 2.10813ZM24.3695 52.6085C24.4639 52.5141 24.6203 52.4512 24.7799 52.4605C24.9353 52.4697 25.0571 52.5441 25.119 52.6198L20.5885 56.3265C22.574 58.7532 26.2234 59.033 28.5087 56.7476L24.3695 52.6085ZM25.1612 52.6726L11.3319 34.9506L6.71707 38.5518L20.5463 56.2738L25.1612 52.6726ZM11.3915 35.0297C10.4601 33.7491 9.12108 33.0706 7.73002 32.9736C6.42979 32.8828 5.23407 33.302 4.32781 33.9062L7.57484 38.7767C7.56989 38.78 7.55781 38.7878 7.52924 38.7962C7.50033 38.8046 7.43031 38.8205 7.32262 38.813C7.20864 38.8051 7.06614 38.7711 6.92331 38.693C6.7776 38.6132 6.69243 38.5208 6.65746 38.4727L11.3915 35.0297ZM4.26347 33.9503L2.522 35.1796L5.89771 39.9619L7.63917 38.7326L4.26347 33.9503ZM2.58634 35.1355C0.0210202 36.8457 -0.106267 40.4205 1.61707 42.5747L6.18801 38.918C6.30207 39.0605 6.32518 39.2077 6.31284 39.3211C6.30319 39.41 6.23493 39.7383 5.83337 40.006L2.58634 35.1355Z" fill="black"/>
</svg>
